<?xml version="1.0" encoding="UTF-8" standalone="no"?>
<!-- Created with Inkscape (http://www.inkscape.org/) -->

<svg
   width="64.126411mm"
   height="24.085714mm"
   viewBox="0 0 64.126411 24.085715"
   version="1.1"
   id="svg1"
   sodipodi:docname="phaleixo-solucoesdigitais.svg"
   xmlns:inkscape="http://www.inkscape.org/namespaces/inkscape"
   xmlns:sodipodi="http://sodipodi.sourceforge.net/DTD/sodipodi-0.dtd"
   xmlns="http://www.w3.org/2000/svg"
   xmlns:svg="http://www.w3.org/2000/svg">
  <sodipodi:namedview
     id="namedview1"
     pagecolor="#505050"
     bordercolor="#ffffff"
     borderopacity="1"
     inkscape:showpageshadow="0"
     inkscape:pageopacity="0"
     inkscape:pagecheckerboard="1"
     inkscape:deskcolor="#505050"
     inkscape:document-units="mm">
    <inkscape:page
       x="0"
       y="0"
       width="64.126411"
       height="24.085714"
       id="page2"
       margin="0"
       bleed="0" />
  </sodipodi:namedview>
  <defs
     id="defs1" />
  <g
     id="layer1"
     transform="translate(-49.850832,-47.079328)"
     style="fill:#ffffff;fill-opacity:1;stroke:#000000;stroke-width:0.1;stroke-dasharray:none;stroke-opacity:1">
    <g
       id="g2"
       style="fill:#ffffff;fill-opacity:1;stroke:#000000;stroke-width:0.1;stroke-dasharray:none;stroke-opacity:1">
      <path
         d="m 50.263307,60.789799 h 2.608044 l 1.120356,-3.269238 h 5.30792 l 1.092807,3.269238 h 2.672327 L 58.197637,47.106753 h -3.04884 z m 4.407961,-5.262004 0.661194,-1.928483 c 0.413247,-1.258105 0.826493,-2.57131 1.340755,-4.297762 0.514262,1.726452 0.918325,3.039657 1.322388,4.297762 l 0.642828,1.928483 z m 9.651598,5.262004 h 8.770006 V 58.686834 H 66.747245 V 47.106753 h -2.424379 z m 10.340342,0 h 9.504666 v -2.102965 h -7.080288 v -3.81105 h 6.547659 v -2.066231 h -6.547659 v -3.599835 h 7.080288 V 47.106753 H 74.663208 Z M 88.346255,47.106753 h -2.424378 v 13.683046 h 2.424378 z m 1.285655,13.683046 h 2.754975 l 2.130515,-3.10394 c 0.468346,-0.67956 0.918325,-1.349938 1.359121,-2.029498 0.440796,0.67956 0.881592,1.349938 1.340755,2.029498 l 2.093782,3.10394 h 2.819262 l -4.848761,-7.071104 4.490611,-6.611942 h -2.699877 l -1.717268,2.534578 c -0.495896,0.743843 -0.973425,1.487686 -1.450954,2.23153 -0.468346,-0.743844 -0.945875,-1.487687 -1.423404,-2.23153 l -1.689718,-2.534578 h -2.773343 l 4.527344,6.685408 z m 18.51343,0.220398 c 3.66412,0 6.37318,-2.782526 6.37318,-7.052738 0,-4.288579 -2.70906,-7.071104 -6.37318,-7.071104 -3.66411,0 -6.37317,2.782525 -6.37317,7.071104 0,4.261029 2.70906,7.052738 6.37317,7.052738 z m 0,-2.176431 c -2.24071,0 -3.93043,-1.754001 -3.93043,-4.876307 0,-3.131489 1.68972,-4.894673 3.93043,-4.894673 2.23153,0 3.92125,1.763184 3.92125,4.894673 0,3.122306 -1.68972,4.876307 -3.92125,4.876307 z"
         id="text1"
         style="font-weight:600;font-size:18.8073px;font-family:'Inter Display';-inkscape-font-specification:'Inter Display, Semi-Bold';fill:#ffffff;fill-opacity:1;stroke:#000000;stroke-width:0.1;stroke-dasharray:none;stroke-opacity:1"
         transform="scale(0.9948391,1.0051877)"
         aria-label="ALEIXO " />
      <path
         d="m 52.275949,69.390758 c 1.369284,0 2.282141,-0.739583 2.282141,-1.834165 0,-0.879047 -0.574762,-1.419998 -1.800356,-1.724284 l -0.714225,-0.1775 c -0.912856,-0.228214 -1.26363,-0.511368 -1.26363,-1.001606 0,-0.625475 0.578988,-1.064999 1.394642,-1.064999 0.853689,0 1.40732,0.477559 1.453808,1.26363 h 0.752261 c -0.03381,-1.208689 -0.870594,-1.960951 -2.180712,-1.960951 -1.314344,0 -2.17226,0.714226 -2.17226,1.800356 0,0.857916 0.532499,1.356606 1.81726,1.67357 l 0.705773,0.173273 c 0.90863,0.223988 1.246725,0.528274 1.246725,1.052321 0,0.676189 -0.604344,1.10726 -1.521427,1.10726 -1.010058,0 -1.597498,-0.536725 -1.597498,-1.436903 h -0.777619 c 0,1.310118 0.921309,2.129998 2.375117,2.129998 z m 4.9869,0 c 1.238272,0 2.070831,-0.96357 2.070831,-2.324402 0,-1.369285 -0.832559,-2.341308 -2.070831,-2.341308 -1.238273,0 -2.070832,0.972023 -2.070832,2.341308 0,1.360832 0.832559,2.324402 2.070832,2.324402 z m 0,-0.650833 c -0.845238,0 -1.343928,-0.659285 -1.343928,-1.673569 0,-1.022738 0.502917,-1.690475 1.343928,-1.690475 0.841011,0 1.343927,0.671964 1.343927,1.690475 0,1.010058 -0.49869,1.673569 -1.343927,1.673569 z m 3.626068,-5.747613 h -0.718451 v 6.297018 h 0.718451 z m 2.704759,6.381541 c 0.566309,0 1.018511,-0.23244 1.327023,-0.739582 v 0.655059 h 0.701546 v -4.462853 h -0.718451 v 2.611783 c 0,0.900178 -0.524047,1.276308 -1.17488,1.276308 -0.667737,0 -1.056547,-0.393035 -1.056547,-1.166427 v -2.721664 h -0.718451 v 2.772378 c 0,1.187558 0.739582,1.774998 1.63976,1.774998 z m 4.467079,1.682022 h 0.494464 c 0.58744,0 0.972023,-0.219761 0.972023,-0.718451 0,-0.397262 -0.308512,-0.663512 -0.794523,-0.684642 v -0.270476 c 0.904404,-0.08452 1.563689,-0.726904 1.677796,-1.546785 h -0.739583 c -0.139464,0.545178 -0.473333,0.904404 -1.14107,0.904404 -0.845237,0 -1.343927,-0.659285 -1.343927,-1.673569 0,-1.022738 0.502916,-1.690475 1.343927,-1.690475 0.659285,0 1.048094,0.380357 1.153749,0.904404 h 0.726904 c -0.12256,-0.900178 -0.866368,-1.555237 -1.880653,-1.555237 -1.238273,0 -2.070831,0.972023 -2.070831,2.341308 0,1.276308 0.73113,2.201843 1.842617,2.311723 l -0.08875,0.680416 h 0.342321 c 0.278928,0 0.418392,0.09298 0.418392,0.278929 0,0.185952 -0.139464,0.278928 -0.418392,0.278928 h -0.494464 z m 4.995352,-1.665117 c 1.238273,0 2.070831,-0.96357 2.070831,-2.324402 0,-1.369285 -0.832558,-2.341308 -2.070831,-2.341308 -1.238273,0 -2.070831,0.972023 -2.070831,2.341308 0,1.360832 0.832558,2.324402 2.070831,2.324402 z m 0,-0.650833 c -0.845237,0 -1.343927,-0.659285 -1.343927,-1.673569 0,-1.022738 0.502916,-1.690475 1.343927,-1.690475 0.841011,0 1.343927,0.671964 1.343927,1.690475 0,1.010058 -0.49869,1.673569 -1.343927,1.673569 z m 0.55363,-4.771364 c 0.405714,0 0.642381,-0.338095 0.659285,-0.857916 h -0.502916 c -0.02958,0.236667 -0.09298,0.338095 -0.23244,0.338095 -0.283155,0 -0.583214,-0.355 -1.014285,-0.355 -0.443749,0 -0.650832,0.367679 -0.667737,0.862142 h 0.519821 c 0.0085,-0.156368 0.07184,-0.329642 0.219761,-0.329642 0.207084,0 0.612797,0.342321 1.018511,0.342321 z m 4.196605,5.422197 c 0.972022,0 1.732736,-0.583214 1.901783,-1.436903 h -0.718451 c -0.135238,0.46488 -0.549405,0.78607 -1.183332,0.78607 -0.845238,0 -1.327023,-0.600118 -1.360832,-1.474939 h 3.338687 v -0.19863 c 0,-1.38619 -0.786071,-2.341308 -2.02857,-2.341308 -1.183332,0 -2.020117,0.984702 -2.020117,2.341308 0,1.343927 0.760714,2.324402 2.070832,2.324402 z m -1.35238,-2.742795 c 0.07607,-0.786071 0.570535,-1.280534 1.301665,-1.280534 0.735357,0 1.234047,0.494463 1.310118,1.280534 z m 5.705351,2.742795 c 0.972023,0 1.707379,-0.490238 1.707379,-1.31857 0,-0.64238 -0.388809,-1.035416 -1.242498,-1.238273 l -0.718452,-0.169047 c -0.431071,-0.101429 -0.693095,-0.300059 -0.693095,-0.638154 0,-0.380357 0.350774,-0.684642 0.900178,-0.684642 0.574761,0 0.94244,0.346547 0.950892,0.81988 h 0.701547 c -0.02536,-0.887499 -0.722678,-1.436904 -1.652439,-1.436904 -0.955118,0 -1.618629,0.540952 -1.618629,1.301666 0,0.650832 0.431071,1.073451 1.259403,1.267856 l 0.718452,0.169047 c 0.397261,0.09298 0.671964,0.287381 0.671964,0.625476 0,0.397261 -0.384583,0.684642 -1.001607,0.684642 -0.625475,0 -0.988927,-0.287381 -1.039641,-0.81988 h -0.71 c 0.05917,0.972023 0.811428,1.436903 1.766546,1.436903 z M 88.91276,69.28933 c 1.918689,0 3.017497,-1.191785 3.017497,-3.161188 0,-1.952498 -1.098808,-3.13583 -2.932973,-3.13583 h -2.02857 v 6.297018 z m -1.183332,-0.67619 v -4.944638 h 1.217142 c 1.479165,0 2.222974,0.938213 2.222974,2.45964 0,1.538332 -0.743809,2.484998 -2.307498,2.484998 z m 5.113683,0.67619 h 0.718452 v -4.462853 h -0.718452 z m 0.359226,-5.333448 c 0.270476,0 0.490238,-0.219761 0.490238,-0.490237 0,-0.270476 -0.219762,-0.490238 -0.490238,-0.490238 -0.270476,0 -0.490238,0.219762 -0.490238,0.490238 0,0.270476 0.219762,0.490237 0.490238,0.490237 z m 3.2922,7.15916 c 1.039641,0 1.96095,-0.507142 1.96095,-1.825712 V 64.826477 H 97.75394 v 0.697321 h -0.0042 c -0.308512,-0.549405 -0.836785,-0.781845 -1.415772,-0.781845 -1.162202,0 -1.935594,0.938213 -1.935594,2.31595 0,1.373511 0.773392,2.31595 1.935594,2.31595 0.587439,0 1.077677,-0.240892 1.40732,-0.760713 h 0.0042 v 0.67619 c 0,0.760713 -0.473333,1.191784 -1.250951,1.191784 -0.574762,0 -1.014285,-0.236666 -1.141071,-0.718452 H 94.61811 c 0.109881,0.879047 0.870594,1.35238 1.876427,1.35238 z m -0.05071,-2.387795 c -0.773392,0 -1.31857,-0.574762 -1.31857,-1.669344 0,-1.094582 0.545178,-1.67357 1.31857,-1.67357 0.828333,0 1.35238,0.663512 1.35238,1.67357 0,1.010059 -0.524047,1.669344 -1.35238,1.669344 z m 3.076665,0.562083 h 0.718458 v -4.462853 h -0.718458 z m 0.359226,-5.333448 c 0.270482,0 0.490242,-0.219761 0.490242,-0.490237 0,-0.270476 -0.21976,-0.490238 -0.490242,-0.490238 -0.270476,0 -0.490238,0.219762 -0.490238,0.490238 0,0.270476 0.219762,0.490237 0.490238,0.490237 z m 3.457022,0.870595 h -0.9044 v -1.217142 h -0.71845 v 1.217142 h -0.79453 V 65.4435 h 0.79453 v 2.839997 c 0,0.671964 0.37613,1.005833 1.14107,1.005833 h 0.48178 v -0.617024 h -0.41416 c -0.36768,0 -0.49024,-0.118333 -0.49024,-0.46488 V 65.4435 h 0.9044 z m 2.23143,4.530472 c 0.81143,0 1.1622,-0.380357 1.32702,-0.701547 h 0.0169 v 0.633928 h 0.71 v -3.076664 c 0,-0.883273 -0.65929,-1.470713 -1.69893,-1.470713 -1.05655,0 -1.77923,0.604345 -1.81726,1.419999 h 0.73113 c 0.0338,-0.44375 0.46488,-0.786071 1.08613,-0.786071 0.62547,0 0.98893,0.350773 0.98893,0.836785 v 0.04226 c 0,0.342321 -0.27471,0.308511 -1.12418,0.422618 -0.89594,0.118334 -1.775,0.304286 -1.775,1.327023 0,0.891725 0.66774,1.35238 1.55524,1.35238 z m 0.10143,-0.642381 c -0.57054,0 -0.92131,-0.249345 -0.92131,-0.667737 0,-0.502916 0.49024,-0.680416 1.00583,-0.752261 0.51137,-0.07185 1.0481,-0.152143 1.15798,-0.253572 v 0.557857 c 0,0.583214 -0.36346,1.115713 -1.2425,1.115713 z m 3.0175,0.574762 h 0.71845 v -4.462853 h -0.71845 z m 0.35922,-5.333448 c 0.27048,0 0.49024,-0.219761 0.49024,-0.490237 0,-0.270476 -0.21976,-0.490238 -0.49024,-0.490238 -0.27047,0 -0.49024,0.219762 -0.49024,0.490238 0,0.270476 0.21977,0.490237 0.49024,0.490237 z m 2.97946,5.434876 c 0.97202,0 1.70738,-0.490238 1.70738,-1.31857 0,-0.64238 -0.38881,-1.035416 -1.2425,-1.238273 l -0.71845,-0.169047 c -0.43108,-0.101429 -0.6931,-0.300059 -0.6931,-0.638154 0,-0.380357 0.35078,-0.684642 0.90018,-0.684642 0.57476,0 0.94244,0.346547 0.95089,0.81988 h 0.70155 c -0.0254,-0.887499 -0.72268,-1.436904 -1.65244,-1.436904 -0.95512,0 -1.61863,0.540952 -1.61863,1.301666 0,0.650832 0.43107,1.073451 1.25941,1.267856 l 0.71845,0.169047 c 0.39726,0.09298 0.67196,0.287381 0.67196,0.625476 0,0.397261 -0.38458,0.684642 -1.0016,0.684642 -0.62548,0 -0.98893,-0.287381 -1.03965,-0.81988 h -0.71 c 0.0592,0.972023 0.81143,1.436903 1.76655,1.436903 z"
         id="text2"
         style="font-size:8.65523px;font-family:'Inter Display';-inkscape-font-specification:'Inter Display, @opsz=32';font-variation-settings:'opsz' 32;fill:#ffffff;fill-opacity:1;stroke:#000000;stroke-width:0.1;stroke-dasharray:none;stroke-opacity:1"
         aria-label="Soluções Digitais" />
    </g>
  </g>
</svg>
