<?xml version="1.0" encoding="UTF-8" standalone="no"?>
<!-- Created with Inkscape (http://www.inkscape.org/) -->

<svg
   width="74.375931mm"
   height="26.265882mm"
   viewBox="0 0 74.37593 26.265883"
   version="1.1"
   id="svg1"
   sodipodi:docname="phaleixo-solucoesdigitais.svg"
   xmlns:inkscape="http://www.inkscape.org/namespaces/inkscape"
   xmlns:sodipodi="http://sodipodi.sourceforge.net/DTD/sodipodi-0.dtd"
   xmlns="http://www.w3.org/2000/svg"
   xmlns:svg="http://www.w3.org/2000/svg">
  <sodipodi:namedview
     id="namedview1"
     pagecolor="#505050"
     bordercolor="#ffffff"
     borderopacity="1"
     inkscape:showpageshadow="0"
     inkscape:pageopacity="0"
     inkscape:pagecheckerboard="1"
     inkscape:deskcolor="#505050"
     inkscape:document-units="mm"
     showgrid="false">
    <inkscape:page
       x="0"
       y="0"
       width="74.375931"
       height="26.265882"
       id="page1"
       margin="0"
       bleed="0" />
  </sodipodi:namedview>
  <defs
     id="defs1" />
  <g
     id="layer1"
     transform="translate(-83.950455,-9.994512)"
     style="fill:#ffffff;fill-opacity:1;stroke:#000000;stroke-width:0.1;stroke-dasharray:none;stroke-opacity:1">
    <g
       id="g2"
       style="fill:#ffffff;fill-opacity:1;stroke:#000000;stroke-width:0.1;stroke-dasharray:none;stroke-opacity:1"
       transform="translate(-100.90033,52.881496)">
      <path
         d="m 50.263307,60.789799 h 2.608044 l 1.120356,-3.269238 h 5.30792 l 1.092807,3.269238 h 2.672327 L 58.197637,47.106753 h -3.04884 z m 4.407961,-5.262004 0.661194,-1.928483 c 0.413247,-1.258105 0.826493,-2.57131 1.340755,-4.297762 0.514262,1.726452 0.918325,3.039657 1.322388,4.297762 l 0.642828,1.928483 z m 9.651598,5.262004 h 8.770006 V 58.686834 H 66.747245 V 47.106753 h -2.424379 z m 10.340342,0 h 9.504666 v -2.102965 h -7.080288 v -3.81105 h 6.547659 v -2.066231 h -6.547659 v -3.599835 h 7.080288 V 47.106753 H 74.663208 Z M 88.346255,47.106753 h -2.424378 v 13.683046 h 2.424378 z m 1.285655,13.683046 h 2.754975 l 2.130515,-3.10394 c 0.468346,-0.67956 0.918325,-1.349938 1.359121,-2.029498 0.440796,0.67956 0.881592,1.349938 1.340755,2.029498 l 2.093782,3.10394 h 2.819262 l -4.848761,-7.071104 4.490611,-6.611942 h -2.699877 l -1.717268,2.534578 c -0.495896,0.743843 -0.973425,1.487686 -1.450954,2.23153 -0.468346,-0.743844 -0.945875,-1.487687 -1.423404,-2.23153 l -1.689718,-2.534578 h -2.773343 l 4.527344,6.685408 z m 18.51343,0.220398 c 3.66412,0 6.37318,-2.782526 6.37318,-7.052738 0,-4.288579 -2.70906,-7.071104 -6.37318,-7.071104 -3.66411,0 -6.37317,2.782525 -6.37317,7.071104 0,4.261029 2.70906,7.052738 6.37317,7.052738 z m 0,-2.176431 c -2.24071,0 -3.93043,-1.754001 -3.93043,-4.876307 0,-3.131489 1.68972,-4.894673 3.93043,-4.894673 2.23153,0 3.92125,1.763184 3.92125,4.894673 0,3.122306 -1.68972,4.876307 -3.92125,4.876307 z"
         id="text1"
         style="font-weight:600;font-size:18.8073px;font-family:'Inter Display';-inkscape-font-specification:'Inter Display, Semi-Bold';fill:#ffffff;fill-opacity:1;stroke:#000000;stroke-width:0.1;stroke-dasharray:none;stroke-opacity:1"
         transform="scale(0.9948391,1.0051877)"
         aria-label="ALEIXO " />
      <path
         d="m 52.275949,69.390758 c 1.369284,0 2.282141,-0.739583 2.282141,-1.834165 0,-0.879047 -0.574762,-1.419998 -1.800356,-1.724284 l -0.714225,-0.1775 c -0.912856,-0.228214 -1.26363,-0.511368 -1.26363,-1.001606 0,-0.625475 0.578988,-1.064999 1.394642,-1.064999 0.853689,0 1.40732,0.477559 1.453808,1.26363 h 0.752261 c -0.03381,-1.208689 -0.870594,-1.960951 -2.180712,-1.960951 -1.314344,0 -2.17226,0.714226 -2.17226,1.800356 0,0.857916 0.532499,1.356606 1.81726,1.67357 l 0.705773,0.173273 c 0.90863,0.223988 1.246725,0.528274 1.246725,1.052321 0,0.676189 -0.604344,1.10726 -1.521427,1.10726 -1.010058,0 -1.597498,-0.536725 -1.597498,-1.436903 h -0.777619 c 0,1.310118 0.921309,2.129998 2.375117,2.129998 z m 4.9869,0 c 1.238272,0 2.070831,-0.96357 2.070831,-2.324402 0,-1.369285 -0.832559,-2.341308 -2.070831,-2.341308 -1.238273,0 -2.070832,0.972023 -2.070832,2.341308 0,1.360832 0.832559,2.324402 2.070832,2.324402 z m 0,-0.650833 c -0.845238,0 -1.343928,-0.659285 -1.343928,-1.673569 0,-1.022738 0.502917,-1.690475 1.343928,-1.690475 0.841011,0 1.343927,0.671964 1.343927,1.690475 0,1.010058 -0.49869,1.673569 -1.343927,1.673569 z m 3.626068,-5.747613 h -0.718451 v 6.297018 h 0.718451 z m 2.704759,6.381541 c 0.566309,0 1.018511,-0.23244 1.327023,-0.739582 v 0.655059 h 0.701546 v -4.462853 h -0.718451 v 2.611783 c 0,0.900178 -0.524047,1.276308 -1.17488,1.276308 -0.667737,0 -1.056547,-0.393035 -1.056547,-1.166427 v -2.721664 h -0.718451 v 2.772378 c 0,1.187558 0.739582,1.774998 1.63976,1.774998 z m 4.467079,1.682022 h 0.494464 c 0.58744,0 0.972023,-0.219761 0.972023,-0.718451 0,-0.397262 -0.308512,-0.663512 -0.794523,-0.684642 v -0.270476 c 0.904404,-0.08452 1.563689,-0.726904 1.677796,-1.546785 h -0.739583 c -0.139464,0.545178 -0.473333,0.904404 -1.14107,0.904404 -0.845237,0 -1.343927,-0.659285 -1.343927,-1.673569 0,-1.022738 0.502916,-1.690475 1.343927,-1.690475 0.659285,0 1.048094,0.380357 1.153749,0.904404 h 0.726904 c -0.12256,-0.900178 -0.866368,-1.555237 -1.880653,-1.555237 -1.238273,0 -2.070831,0.972023 -2.070831,2.341308 0,1.276308 0.73113,2.201843 1.842617,2.311723 l -0.08875,0.680416 h 0.342321 c 0.278928,0 0.418392,0.09298 0.418392,0.278929 0,0.185952 -0.139464,0.278928 -0.418392,0.278928 h -0.494464 z m 4.995352,-1.665117 c 1.238273,0 2.070831,-0.96357 2.070831,-2.324402 0,-1.369285 -0.832558,-2.341308 -2.070831,-2.341308 -1.238273,0 -2.070831,0.972023 -2.070831,2.341308 0,1.360832 0.832558,2.324402 2.070831,2.324402 z m 0,-0.650833 c -0.845237,0 -1.343927,-0.659285 -1.343927,-1.673569 0,-1.022738 0.502916,-1.690475 1.343927,-1.690475 0.841011,0 1.343927,0.671964 1.343927,1.690475 0,1.010058 -0.49869,1.673569 -1.343927,1.673569 z m 0.55363,-4.771364 c 0.405714,0 0.642381,-0.338095 0.659285,-0.857916 h -0.502916 c -0.02958,0.236667 -0.09298,0.338095 -0.23244,0.338095 -0.283155,0 -0.583214,-0.355 -1.014285,-0.355 -0.443749,0 -0.650832,0.367679 -0.667737,0.862142 h 0.519821 c 0.0085,-0.156368 0.07184,-0.329642 0.219761,-0.329642 0.207084,0 0.612797,0.342321 1.018511,0.342321 z m 4.196605,5.422197 c 0.972022,0 1.732736,-0.583214 1.901783,-1.436903 h -0.718451 c -0.135238,0.46488 -0.549405,0.78607 -1.183332,0.78607 -0.845238,0 -1.327023,-0.600118 -1.360832,-1.474939 h 3.338687 v -0.19863 c 0,-1.38619 -0.786071,-2.341308 -2.02857,-2.341308 -1.183332,0 -2.020117,0.984702 -2.020117,2.341308 0,1.343927 0.760714,2.324402 2.070832,2.324402 z m -1.35238,-2.742795 c 0.07607,-0.786071 0.570535,-1.280534 1.301665,-1.280534 0.735357,0 1.234047,0.494463 1.310118,1.280534 z m 5.705351,2.742795 c 0.972023,0 1.707379,-0.490238 1.707379,-1.31857 0,-0.64238 -0.388809,-1.035416 -1.242498,-1.238273 l -0.718452,-0.169047 c -0.431071,-0.101429 -0.693095,-0.300059 -0.693095,-0.638154 0,-0.380357 0.350774,-0.684642 0.900178,-0.684642 0.574761,0 0.94244,0.346547 0.950892,0.81988 h 0.701547 c -0.02536,-0.887499 -0.722678,-1.436904 -1.652439,-1.436904 -0.955118,0 -1.618629,0.540952 -1.618629,1.301666 0,0.650832 0.431071,1.073451 1.259403,1.267856 l 0.718452,0.169047 c 0.397261,0.09298 0.671964,0.287381 0.671964,0.625476 0,0.397261 -0.384583,0.684642 -1.001607,0.684642 -0.625475,0 -0.988927,-0.287381 -1.039641,-0.81988 h -0.71 c 0.05917,0.972023 0.811428,1.436903 1.766546,1.436903 z M 88.91276,69.28933 c 1.918689,0 3.017497,-1.191785 3.017497,-3.161188 0,-1.952498 -1.098808,-3.13583 -2.932973,-3.13583 h -2.02857 v 6.297018 z m -1.183332,-0.67619 v -4.944638 h 1.217142 c 1.479165,0 2.222974,0.938213 2.222974,2.45964 0,1.538332 -0.743809,2.484998 -2.307498,2.484998 z m 5.113683,0.67619 h 0.718452 v -4.462853 h -0.718452 z m 0.359226,-5.333448 c 0.270476,0 0.490238,-0.219761 0.490238,-0.490237 0,-0.270476 -0.219762,-0.490238 -0.490238,-0.490238 -0.270476,0 -0.490238,0.219762 -0.490238,0.490238 0,0.270476 0.219762,0.490237 0.490238,0.490237 z m 3.2922,7.15916 c 1.039641,0 1.96095,-0.507142 1.96095,-1.825712 V 64.826477 H 97.75394 v 0.697321 h -0.0042 c -0.308512,-0.549405 -0.836785,-0.781845 -1.415772,-0.781845 -1.162202,0 -1.935594,0.938213 -1.935594,2.31595 0,1.373511 0.773392,2.31595 1.935594,2.31595 0.587439,0 1.077677,-0.240892 1.40732,-0.760713 h 0.0042 v 0.67619 c 0,0.760713 -0.473333,1.191784 -1.250951,1.191784 -0.574762,0 -1.014285,-0.236666 -1.141071,-0.718452 H 94.61811 c 0.109881,0.879047 0.870594,1.35238 1.876427,1.35238 z m -0.05071,-2.387795 c -0.773392,0 -1.31857,-0.574762 -1.31857,-1.669344 0,-1.094582 0.545178,-1.67357 1.31857,-1.67357 0.828333,0 1.35238,0.663512 1.35238,1.67357 0,1.010059 -0.524047,1.669344 -1.35238,1.669344 z m 3.076665,0.562083 h 0.718458 v -4.462853 h -0.718458 z m 0.359226,-5.333448 c 0.270482,0 0.490242,-0.219761 0.490242,-0.490237 0,-0.270476 -0.21976,-0.490238 -0.490242,-0.490238 -0.270476,0 -0.490238,0.219762 -0.490238,0.490238 0,0.270476 0.219762,0.490237 0.490238,0.490237 z m 3.457022,0.870595 h -0.9044 v -1.217142 h -0.71845 v 1.217142 h -0.79453 V 65.4435 h 0.79453 v 2.839997 c 0,0.671964 0.37613,1.005833 1.14107,1.005833 h 0.48178 v -0.617024 h -0.41416 c -0.36768,0 -0.49024,-0.118333 -0.49024,-0.46488 V 65.4435 h 0.9044 z m 2.23143,4.530472 c 0.81143,0 1.1622,-0.380357 1.32702,-0.701547 h 0.0169 v 0.633928 h 0.71 v -3.076664 c 0,-0.883273 -0.65929,-1.470713 -1.69893,-1.470713 -1.05655,0 -1.77923,0.604345 -1.81726,1.419999 h 0.73113 c 0.0338,-0.44375 0.46488,-0.786071 1.08613,-0.786071 0.62547,0 0.98893,0.350773 0.98893,0.836785 v 0.04226 c 0,0.342321 -0.27471,0.308511 -1.12418,0.422618 -0.89594,0.118334 -1.775,0.304286 -1.775,1.327023 0,0.891725 0.66774,1.35238 1.55524,1.35238 z m 0.10143,-0.642381 c -0.57054,0 -0.92131,-0.249345 -0.92131,-0.667737 0,-0.502916 0.49024,-0.680416 1.00583,-0.752261 0.51137,-0.07185 1.0481,-0.152143 1.15798,-0.253572 v 0.557857 c 0,0.583214 -0.36346,1.115713 -1.2425,1.115713 z m 3.0175,0.574762 h 0.71845 v -4.462853 h -0.71845 z m 0.35922,-5.333448 c 0.27048,0 0.49024,-0.219761 0.49024,-0.490237 0,-0.270476 -0.21976,-0.490238 -0.49024,-0.490238 -0.27047,0 -0.49024,0.219762 -0.49024,0.490238 0,0.270476 0.21977,0.490237 0.49024,0.490237 z m 2.97946,5.434876 c 0.97202,0 1.70738,-0.490238 1.70738,-1.31857 0,-0.64238 -0.38881,-1.035416 -1.2425,-1.238273 l -0.71845,-0.169047 c -0.43108,-0.101429 -0.6931,-0.300059 -0.6931,-0.638154 0,-0.380357 0.35078,-0.684642 0.90018,-0.684642 0.57476,0 0.94244,0.346547 0.95089,0.81988 h 0.70155 c -0.0254,-0.887499 -0.72268,-1.436904 -1.65244,-1.436904 -0.95512,0 -1.61863,0.540952 -1.61863,1.301666 0,0.650832 0.43107,1.073451 1.25941,1.267856 l 0.71845,0.169047 c 0.39726,0.09298 0.67196,0.287381 0.67196,0.625476 0,0.397261 -0.38458,0.684642 -1.0016,0.684642 -0.62548,0 -0.98893,-0.287381 -1.03965,-0.81988 h -0.71 c 0.0592,0.972023 0.81143,1.436903 1.76655,1.436903 z"
         id="text2"
         style="font-size:8.65523px;font-family:'Inter Display';-inkscape-font-specification:'Inter Display, @opsz=32';font-variation-settings:'opsz' 32;fill:#ffffff;fill-opacity:1;stroke:#000000;stroke-width:0.1;stroke-dasharray:none;stroke-opacity:1"
         aria-label="Soluções Digitais" />
    </g>
    <g
       id="g6"
       transform="translate(-2.256466,0.85960608)">
      <circle
         style="fill:#2531b0;fill-opacity:1;stroke:none;stroke-width:0.158577"
         id="path6"
         cx="99.339867"
         cy="22.267847"
         r="13.13294" />
      <path
         d="M 89.412033,31.074133 V 17.467774 h 2.28927 v 1.356944 h 0.0277 q 0.30462,-0.516931 0.75693,-0.858475 0.45232,-0.350774 1.00617,-0.516931 0.56309,-0.175387 1.19079,-0.175387 1.26463,0 2.20618,0.636933 0.95079,0.636932 1.47695,1.781565 0.52616,1.144633 0.52616,2.64004 0,1.513869 -0.52616,2.658501 -0.51693,1.144633 -1.46772,1.781565 -0.95078,0.636933 -2.22464,0.636933 -0.63694,0 -1.18156,-0.184618 -0.54462,-0.184618 -0.98771,-0.553855 -0.43385,-0.369236 -0.73847,-0.92309 h -0.0277 v 5.326234 z m 4.717,-5.612392 q 0.72001,0 1.2554,-0.360006 0.54462,-0.360005 0.84924,-1.061554 0.30462,-0.701549 0.30462,-1.707718 0,-1.006169 -0.30462,-1.698487 -0.30462,-0.701549 -0.84924,-1.061555 -0.53539,-0.369236 -1.2554,-0.369236 -0.76617,0 -1.32926,0.387698 -0.56308,0.387698 -0.87693,1.089247 -0.31385,0.701549 -0.31385,1.652333 0,0.950783 0.31385,1.661563 0.31385,0.701549 0.87693,1.089247 0.56309,0.378468 1.32926,0.378468 z m 8.704747,-3.75698 v 5.510852 h -2.3262 V 13.46156 h 2.3262 v 6.489328 h -0.48924 q 0.47077,-1.310788 1.32002,-1.993876 0.85847,-0.683087 2.12311,-0.683087 1.02463,0 1.80925,0.443084 0.78463,0.433852 1.22772,1.292327 0.44308,0.858474 0.44308,2.113878 v 6.092399 H 106.9323 V 21.49245 q 0,-1.070785 -0.51693,-1.62464 -0.5077,-0.553854 -1.44925,-0.553854 -0.60924,0 -1.08925,0.249234 -0.48001,0.249235 -0.76617,0.775397 -0.27692,0.526161 -0.27692,1.366174 z"
         id="text3"
         style="font-size:18.9049px;font-family:'Adwaita Sans';-inkscape-font-specification:'Adwaita Sans, @opsz=32,wght=600';font-variation-settings:'opsz' 32, 'wght' 600;fill:#ffffff;fill-opacity:1;stroke:none"
         aria-label="ph"
         inkscape:export-filename="phaleixo-solucoesdigitais.svg"
         inkscape:export-xdpi="96"
         inkscape:export-ydpi="96" />
    </g>
    <path
       d="m 107.76458,28.22683 4.55599,-13.753965 h 3.44964 l 4.55599,13.753965 h -2.97053 l -2.03844,-6.692365 q -0.37458,-1.320012 -0.77529,-2.71387 -0.39201,-1.40309 -0.85371,-3.184644 h 0.74045 q -0.47911,1.781554 -0.87983,3.184644 -0.392,1.393858 -0.78401,2.71387 l -2.10812,6.692365 z m 2.89214,-3.000025 v -2.270789 h 6.78606 v 2.270789 z m 13.64181,3.000025 q -1.57673,0 -2.28235,-0.609236 -0.6969,-0.618467 -0.6969,-2.030786 V 14.472865 h 2.56982 v 10.855479 q 0,0.452311 0.17423,0.636928 0.17421,0.175386 0.60107,0.175386 0.0871,0 0.19165,0 0.10453,0 0.18293,0 v 2.086172 q -0.18293,0 -0.37458,0 -0.18293,0 -0.36587,0 z m 5.82085,0.221541 q -1.39381,0 -2.43044,-0.64616 -1.02793,-0.65539 -1.60287,-1.809247 -0.56623,-1.153855 -0.56623,-2.630792 0,-1.495397 0.57494,-2.640022 0.58365,-1.153857 1.60287,-1.809247 1.01922,-0.655391 2.33462,-0.655391 1.01921,0 1.84678,0.369235 0.82756,0.360003 1.42865,1.043086 0.60107,0.673852 0.92339,1.596936 0.33102,0.923086 0.33102,2.040018 v 0.729238 h -8.12759 v -1.7354 h 6.89059 l -1.15859,0.415388 q 0,-0.738468 -0.25263,-1.273857 -0.25262,-0.53539 -0.72304,-0.821546 -0.46169,-0.295387 -1.10632,-0.295387 -0.63592,0 -1.09762,0.295387 -0.46169,0.286156 -0.71432,0.821546 -0.25263,0.535389 -0.25263,1.273857 v 1.181549 q 0,0.75693 0.25263,1.329243 0.26134,0.563081 0.74917,0.87693 0.48783,0.304618 1.17601,0.304618 0.50526,0 0.88856,-0.147693 0.392,-0.156925 0.65333,-0.433851 0.27006,-0.286156 0.3833,-0.66462 h 2.34332 q -0.1655,0.969239 -0.77529,1.707706 -0.60979,0.738468 -1.53319,1.163087 -0.92339,0.415389 -2.03842,0.415389 z m 5.81911,-0.221541 v -9.747777 h 2.56981 v 9.747777 z m 1.28055,-10.97548 q -0.63592,0 -1.05406,-0.406157 -0.41814,-0.415389 -0.41814,-1.043086 0,-0.627698 0.41814,-1.033855 0.41814,-0.415389 1.04535,-0.415389 0.63592,0 1.05406,0.415389 0.41814,0.406157 0.41814,1.033855 0,0.627697 -0.41814,1.043086 -0.41814,0.406157 -1.04535,0.406157 z m 2.29977,10.97548 3.71099,-5.603126 -0.0523,1.209242 -3.43223,-5.353893 h 2.80503 l 0.81014,1.366165 q 0.34845,0.618468 0.66206,1.200012 0.3136,0.581542 0.6272,1.163086 h -0.81885 q 0.33102,-0.581544 0.64463,-1.163086 0.31361,-0.581544 0.67947,-1.200012 l 0.82758,-1.366165 h 2.76147 l -3.51935,5.353893 0.0523,-1.209242 3.61516,5.603126 h -2.81373 l -0.9234,-1.495397 q -0.33973,-0.609237 -0.65333,-1.163088 -0.31361,-0.563081 -0.63592,-1.126163 h 0.71431 q -0.33102,0.563082 -0.64463,1.126163 -0.3136,0.553851 -0.67077,1.163088 l -0.9408,1.495397 z m 14.12964,0.221541 q -1.38508,0 -2.43915,-0.636929 -1.05406,-0.636928 -1.64642,-1.781554 -0.58366,-1.144625 -0.58366,-2.667716 0,-1.53232 0.58366,-2.676946 0.59236,-1.144625 1.64642,-1.781554 1.05407,-0.64616 2.43915,-0.64616 1.40251,0 2.44786,0.64616 1.05406,0.636929 1.63771,1.781554 0.59237,1.144626 0.59237,2.676946 0,1.523091 -0.59237,2.667716 -0.58365,1.144626 -1.63771,1.781554 -1.04535,0.636929 -2.44786,0.636929 z m 0,-2.206173 q 0.62721,0 1.09761,-0.341542 0.47042,-0.350772 0.73175,-0.996931 0.26134,-0.64616 0.26134,-1.541553 0,-0.913853 -0.26134,-1.560013 -0.26133,-0.646159 -0.73175,-0.987701 -0.4704,-0.350772 -1.09761,-0.350772 -0.6185,0 -1.08891,0.350772 -0.4704,0.341542 -0.73174,0.987701 -0.26134,0.64616 -0.26134,1.560013 0,0.904624 0.26134,1.550783 0.26134,0.636929 0.73174,0.987701 0.47041,0.341542 1.08891,0.341542 z"
       id="text4"
       style="font-weight:bold;font-size:18.365px;font-family:'Adwaita Sans';-inkscape-font-specification:'Adwaita Sans, Bold';fill:#212121;stroke:none;stroke-width:0.0971449"
       aria-label="Aleixo" />
    <path
       d="m 109.89647,34.174814 q -0.51025,0 -0.88402,-0.180611 -0.37379,-0.183571 -0.57847,-0.518145 -0.2047,-0.334573 -0.2047,-0.793501 h 0.54584 q 0,0.313847 0.13052,0.541831 0.1335,0.225023 0.38567,0.346416 0.25215,0.118434 0.60516,0.118434 0.32335,0 0.56067,-0.09474 0.2403,-0.09474 0.37379,-0.269434 0.13349,-0.174689 0.13349,-0.411556 0,-0.18357 -0.0861,-0.319768 -0.0861,-0.136198 -0.27885,-0.236866 -0.18986,-0.10363 -0.51024,-0.180611 l -0.49542,-0.121394 q -0.67636,-0.165806 -0.97597,-0.444123 -0.29962,-0.278319 -0.29962,-0.728363 0,-0.381948 0.18688,-0.663225 0.18987,-0.28424 0.53398,-0.441163 0.34413,-0.156924 0.80392,-0.156924 0.45983,0 0.79801,0.168767 0.34115,0.165805 0.531,0.473733 0.18985,0.307926 0.20173,0.731323 h -0.52804 q -0.0237,-0.414516 -0.29666,-0.648421 -0.27292,-0.236866 -0.72383,-0.236866 -0.28479,0 -0.50728,0.09474 -0.21952,0.09475 -0.34707,0.263515 -0.12461,0.168768 -0.12461,0.387867 0,0.171729 0.089,0.299044 0.0889,0.127316 0.28181,0.225023 0.19578,0.09771 0.51618,0.177649 l 0.50135,0.124356 q 0.32334,0.07994 0.56067,0.192453 0.23732,0.112511 0.39158,0.260552 0.15722,0.148042 0.23435,0.337535 0.0771,0.186532 0.0771,0.417477 0,0.381945 -0.20173,0.672107 -0.19876,0.290161 -0.56067,0.453006 -0.35895,0.159885 -0.83952,0.159885 z m 3.50051,0 q -0.43313,0 -0.76242,-0.207259 -0.3263,-0.210218 -0.51024,-0.57736 -0.18094,-0.367143 -0.18094,-0.843836 0,-0.479654 0.18094,-0.849756 0.18394,-0.370104 0.51024,-0.580323 0.32929,-0.210218 0.76242,-0.210218 0.43606,0 0.76239,0.210218 0.32631,0.210219 0.50727,0.580323 0.18393,0.370102 0.18393,0.849756 0,0.476693 -0.18393,0.843836 -0.18096,0.367142 -0.50727,0.57736 -0.32633,0.207259 -0.76239,0.207259 z m 0,-0.455968 q 0.29664,0 0.50726,-0.145081 0.21064,-0.14508 0.32335,-0.408593 0.11274,-0.266474 0.11274,-0.618813 0,-0.35826 -0.11274,-0.621773 -0.11271,-0.266475 -0.32335,-0.414516 -0.21062,-0.14804 -0.50726,-0.14804 -0.2937,0 -0.50729,0.14804 -0.21062,0.14508 -0.32335,0.411556 -0.11272,0.266473 -0.11272,0.624733 0,0.3553 0.11272,0.618813 0.11273,0.263513 0.32335,0.408593 0.21063,0.145081 0.50729,0.145081 z m 2.84192,0.384908 q -0.43311,0 -0.61703,-0.159885 -0.18393,-0.162846 -0.18393,-0.544792 v -3.706954 h 0.50431 v 3.653658 q 0,0.198376 0.0622,0.263515 0.0652,0.06218 0.25809,0.06218 0.0237,0 0.0593,0 0.0386,0 0.0623,0 v 0.43228 q -0.0356,0 -0.0742,0 -0.0356,0 -0.0713,0 z m 1.74432,0.05922 q -0.31446,0 -0.57847,-0.136199 -0.26106,-0.139158 -0.41828,-0.414515 -0.15426,-0.278317 -0.15426,-0.692833 v -1.942304 h 0.5043 v 1.906773 q 0,0.405633 0.1958,0.61289 0.19578,0.204297 0.54583,0.204297 0.22842,0 0.41533,-0.09178 0.18688,-0.09179 0.29664,-0.290162 0.11273,-0.198375 0.11273,-0.512223 v -1.829791 h 0.50431 v 3.126633 h -0.49244 v -0.757976 h 0.14238 q -0.15425,0.420437 -0.43012,0.618812 -0.27294,0.198377 -0.64375,0.198377 z m 3.46489,0.01185 q -0.43311,0 -0.76239,-0.207257 -0.3263,-0.210219 -0.51024,-0.577362 -0.18097,-0.367142 -0.18097,-0.843835 0,-0.479654 0.18097,-0.849757 0.18394,-0.370103 0.51024,-0.580321 0.32928,-0.210219 0.76239,-0.210219 0.26699,0 0.49244,0.0829 0.22844,0.07994 0.40049,0.227982 0.17502,0.145082 0.28479,0.343456 0.10977,0.198375 0.1424,0.435241 h -0.51024 q -0.0268,-0.139158 -0.092,-0.25463 -0.0652,-0.115472 -0.16908,-0.198375 -0.10087,-0.08586 -0.23733,-0.133237 -0.13646,-0.04737 -0.31149,-0.04737 -0.29369,0 -0.50726,0.14804 -0.21063,0.145081 -0.32336,0.411555 -0.11273,0.266474 -0.11273,0.624734 0,0.355299 0.11273,0.618812 0.11273,0.263514 0.32336,0.408595 0.21061,0.14508 0.50726,0.14508 0.17503,0 0.30852,-0.04441 0.13349,-0.04441 0.22843,-0.127316 0.0979,-0.08586 0.16316,-0.201337 0.0652,-0.118431 0.10086,-0.260552 h 0.51914 q -0.0327,0.230944 -0.14239,0.42932 -0.10978,0.198376 -0.28479,0.346416 -0.17503,0.148041 -0.40345,0.230945 -0.22546,0.0829 -0.48948,0.0829 z m -0.32928,1.166566 v -0.307926 h 0.34709 q 0.14833,0 0.21953,-0.05034 0.0742,-0.04737 0.0742,-0.14508 0,-0.09771 -0.0742,-0.148042 -0.0713,-0.04737 -0.21953,-0.04737 h -0.24029 l 0.0889,-0.680991 h 0.2759 v 0.14212 0.254631 q 0.25512,0.01185 0.40641,0.139159 0.15129,0.130276 0.15129,0.340495 0,0.260553 -0.18688,0.381946 -0.1869,0.121395 -0.49542,0.121395 z m 3.50644,-1.166566 q -0.43312,0 -0.76239,-0.207257 -0.32633,-0.210219 -0.51025,-0.577362 -0.18096,-0.367142 -0.18096,-0.843835 0,-0.479654 0.18096,-0.849757 0.18392,-0.370103 0.51025,-0.580321 0.32927,-0.210219 0.76239,-0.210219 0.43608,0 0.76239,0.210219 0.32633,0.210218 0.50728,0.580321 0.18393,0.370103 0.18393,0.849757 0,0.476693 -0.18393,0.843835 -0.18095,0.367143 -0.50728,0.577362 -0.32631,0.207257 -0.76239,0.207257 z m 0,-0.455966 q 0.29666,0 0.50727,-0.145081 0.21063,-0.145081 0.32336,-0.408594 0.11272,-0.266475 0.11272,-0.618813 0,-0.35826 -0.11272,-0.621773 -0.11273,-0.266474 -0.32336,-0.414516 -0.21061,-0.14804 -0.50727,-0.14804 -0.29369,0 -0.50729,0.14804 -0.21061,0.145081 -0.32334,0.411555 -0.11273,0.266474 -0.11273,0.624734 0,0.355299 0.11273,0.618813 0.11273,0.263513 0.32334,0.408594 0.21064,0.145081 0.50729,0.145081 z m 0.38862,-3.342772 q -0.10679,0 -0.21063,-0.03553 -0.10382,-0.03553 -0.19877,-0.0829 -0.0949,-0.05034 -0.175,-0.08586 -0.0771,-0.03553 -0.13054,-0.03553 -0.0771,0 -0.11273,0.07402 -0.0356,0.07402 -0.0416,0.156923 h -0.36488 q 0.009,-0.260552 0.12162,-0.432281 0.11273,-0.171726 0.34709,-0.171726 0.11274,0 0.21063,0.03849 0.0979,0.03553 0.18392,0.08586 0.0861,0.05034 0.16316,0.08882 0.0801,0.03553 0.15425,0.03553 0.0742,0 0.10978,-0.05626 0.0386,-0.05626 0.0534,-0.18061 h 0.35301 q -0.009,0.272396 -0.13053,0.438202 -0.11866,0.162845 -0.33223,0.162845 z m 2.94575,3.798738 q -0.4598,0 -0.78613,-0.210218 -0.32334,-0.210219 -0.49542,-0.577362 -0.17205,-0.370102 -0.17205,-0.840874 0,-0.476693 0.18098,-0.846796 0.18095,-0.370103 0.50133,-0.580321 0.32038,-0.21318 0.73569,-0.21318 0.32633,0 0.58738,0.118433 0.26402,0.118433 0.45091,0.337535 0.18689,0.2191 0.28479,0.521104 0.10087,0.299043 0.10087,0.663225 v 0.139159 h -2.57494 v -0.432286 h 2.29311 l -0.21656,0.151003 q 0,-0.319768 -0.11569,-0.553674 -0.11272,-0.236866 -0.32037,-0.364181 -0.20766,-0.130277 -0.48949,-0.130277 -0.27885,0 -0.48651,0.130277 -0.20468,0.127315 -0.32038,0.364181 -0.11273,0.233906 -0.11273,0.553674 v 0.21318 q 0,0.32273 0.10977,0.571439 0.11274,0.24871 0.32633,0.390829 0.21358,0.139158 0.51913,0.139158 0.22249,0 0.39158,-0.0681 0.1691,-0.07106 0.27885,-0.195414 0.11274,-0.124356 0.16021,-0.287201 h 0.50432 q -0.0593,0.299044 -0.24624,0.527027 -0.18689,0.225023 -0.46872,0.352339 -0.27885,0.127315 -0.62,0.127315 z m 3.05553,0 q -0.33522,0 -0.60814,-0.10955 -0.27292,-0.109551 -0.44202,-0.331613 -0.16908,-0.225023 -0.18985,-0.565517 h 0.49838 q 0.0268,0.278317 0.21359,0.426359 0.18688,0.148041 0.51617,0.148041 0.32631,0 0.5132,-0.136198 0.18987,-0.136199 0.18987,-0.343455 0,-0.17765 -0.13052,-0.284241 -0.13054,-0.106588 -0.34116,-0.153962 l -0.5043,-0.118433 q -0.43609,-0.103629 -0.66154,-0.325691 -0.2225,-0.222062 -0.2225,-0.562557 0,-0.266474 0.1424,-0.470771 0.14536,-0.207258 0.40048,-0.32273 0.25809,-0.118433 0.5933,-0.118433 0.32633,0 0.58441,0.124354 0.26105,0.121395 0.41235,0.346417 0.15425,0.225023 0.16316,0.535909 H 131.65 q -0.003,-0.248708 -0.18392,-0.411554 -0.18097,-0.162846 -0.48355,-0.162846 -0.28775,0 -0.4598,0.13916 -0.17208,0.139158 -0.17208,0.340494 0,0.177649 0.13054,0.2872 0.13052,0.106591 0.35598,0.159885 l 0.5043,0.118433 q 0.45093,0.106589 0.66155,0.319769 0.21062,0.210218 0.21062,0.547753 0,0.290161 -0.15722,0.497418 -0.15723,0.207258 -0.43016,0.316809 -0.26994,0.10955 -0.61109,0.10955 z m 6.25936,-0.07106 h -1.06202 v -0.473739 h 1.02643 q 0.5488,0 0.90775,-0.21022 0.35895,-0.210218 0.53397,-0.601046 0.17799,-0.39083 0.17799,-0.9297 0,-0.532948 -0.17502,-0.917856 -0.17205,-0.387868 -0.51914,-0.595126 -0.34708,-0.210218 -0.86622,-0.210218 h -1.10949 v -0.473733 h 1.14508 q 0.64374,0 1.10356,0.263513 0.46277,0.263515 0.709,0.757973 0.24621,0.491496 0.24621,1.175447 0,0.689873 -0.24918,1.187291 -0.24919,0.494457 -0.72384,0.760932 -0.47167,0.266475 -1.14508,0.266475 z m -0.83062,-4.41163 v 4.41163 h -0.53399 v -4.41163 z m 3.58949,4.41163 v -3.126632 h 0.50431 v 3.126632 z m 0.25216,-3.736563 q -0.14241,0 -0.24326,-0.100671 -0.10087,-0.100672 -0.10087,-0.242788 0,-0.142121 0.10087,-0.242788 0.10086,-0.100672 0.24326,-0.100672 0.14238,0 0.24325,0.100672 0.10086,0.100671 0.10086,0.242788 0,0.14212 -0.10086,0.242788 -0.10087,0.100671 -0.24325,0.100671 z m 2.31092,5.01564 q -0.353,0 -0.6378,-0.109551 -0.28181,-0.10659 -0.46278,-0.319769 -0.17799,-0.210219 -0.21656,-0.518144 h 0.51618 q 0.0444,0.168766 0.15722,0.278317 0.11273,0.112512 0.27589,0.168767 0.16613,0.05626 0.36785,0.05626 0.40938,0 0.64374,-0.219102 0.23435,-0.216139 0.23435,-0.615851 v -0.47374 h -0.003 q -0.11568,0.180611 -0.26698,0.299043 -0.15129,0.118434 -0.33225,0.174689 -0.18095,0.05922 -0.38861,0.05922 -0.40641,0 -0.71493,-0.204299 -0.30555,-0.207256 -0.47465,-0.571438 -0.16908,-0.367142 -0.16908,-0.846796 0,-0.482615 0.16908,-0.846796 0.1691,-0.367143 0.47465,-0.571439 0.30852,-0.204298 0.71493,-0.204298 0.20469,0 0.38861,0.05626 0.18689,0.05626 0.34117,0.17765 0.1572,0.121393 0.26401,0.313848 h 0.003 V 30.97713 h 0.49246 v 3.126633 q 0,0.461889 -0.19284,0.743167 -0.18985,0.281279 -0.50429,0.408594 -0.31446,0.127316 -0.67934,0.127316 z m -0.0356,-1.672867 q 0.29073,0 0.50432,-0.14508 0.21359,-0.14508 0.32927,-0.408595 0.1157,-0.263512 0.1157,-0.615851 0,-0.3553 -0.1157,-0.618812 -0.11568,-0.263514 -0.32927,-0.408594 -0.21359,-0.14508 -0.50432,-0.14508 -0.26994,0 -0.48057,0.133236 -0.20765,0.133238 -0.32632,0.39379 -0.11865,0.260553 -0.11865,0.64546 0,0.381947 0.11865,0.6425 0.11867,0.260552 0.32632,0.393789 0.21063,0.133237 0.48057,0.133237 z m 2.15964,0.39379 v -3.126632 h 0.5043 v 3.126632 z m 0.25216,-3.736563 q -0.1424,0 -0.24326,-0.100671 -0.10086,-0.100672 -0.10086,-0.242788 0,-0.142121 0.10086,-0.242788 0.10087,-0.100672 0.24326,-0.100672 0.14239,0 0.24325,0.100672 0.10087,0.100671 0.10087,0.242788 0,0.14212 -0.10087,0.242788 -0.10086,0.100671 -0.24325,0.100671 z m 2.42662,0.609931 v 0.432282 h -1.69686 v -0.432285 z m -1.13915,-0.852721 h 0.5043 v 3.221378 q 0,0.180611 0.0742,0.254632 0.0771,0.07106 0.26997,0.07106 0.0683,0 0.14535,0 0.0801,0 0.14537,0 v 0.43228 q -0.0771,0 -0.1691,0 -0.092,0 -0.1691,0 -0.40344,0 -0.6022,-0.174689 -0.19876,-0.177649 -0.19876,-0.529988 z m 2.70547,4.026723 q -0.31149,0 -0.55771,-0.106589 -0.24622,-0.10659 -0.39157,-0.316808 -0.1424,-0.213181 -0.1424,-0.524067 0,-0.269435 0.10383,-0.438202 0.10678,-0.168767 0.28181,-0.263514 0.17798,-0.09771 0.40048,-0.148041 0.22545,-0.05034 0.4598,-0.07994 0.29962,-0.04145 0.47169,-0.06218 0.17205,-0.02073 0.24324,-0.0681 0.0742,-0.04737 0.0742,-0.165805 v -0.02961 q 0,-0.171728 -0.083,-0.302005 -0.0801,-0.133236 -0.23731,-0.207257 -0.15428,-0.07698 -0.37379,-0.07698 -0.21655,0 -0.38565,0.07402 -0.16614,0.07106 -0.26699,0.195414 -0.0979,0.124354 -0.10978,0.281278 h -0.51321 q 0.0148,-0.2872 0.178,-0.509262 0.16314,-0.225022 0.44497,-0.355299 0.28182,-0.130277 0.65263,-0.130277 0.27294,0 0.49244,0.07402 0.22251,0.07402 0.37676,0.210219 0.15723,0.136198 0.24029,0.32569 0.083,0.189493 0.083,0.420437 v 2.155482 h -0.4984 V 33.65963 h -0.0118 q -0.0562,0.112512 -0.16613,0.227984 -0.10977,0.112512 -0.29665,0.189493 -0.18392,0.07402 -0.46871,0.07402 z m 0.0713,-0.450046 q 0.30852,0 0.50133,-0.109551 0.19284,-0.11251 0.28184,-0.290159 0.0889,-0.17765 0.0889,-0.381947 v -0.390829 q -0.0297,0.02665 -0.10977,0.05034 -0.0771,0.02368 -0.19282,0.04737 -0.11273,0.02073 -0.24623,0.04146 -0.13052,0.02073 -0.26401,0.03849 -0.18096,0.02369 -0.34412,0.0829 -0.1602,0.05626 -0.26106,0.162846 -0.10086,0.103629 -0.10086,0.281278 0,0.14508 0.0771,0.251671 0.0801,0.103629 0.22545,0.159885 0.14536,0.05626 0.34413,0.05626 z m 2.1181,0.402673 v -3.126632 h 0.50431 v 3.126632 z m 0.25216,-3.736563 q -0.1424,0 -0.24326,-0.100671 -0.10086,-0.100672 -0.10086,-0.242788 0,-0.142121 0.10086,-0.242788 0.10086,-0.100672 0.24326,-0.100672 0.14238,0 0.24325,0.100672 0.10086,0.100671 0.10086,0.242788 0,0.14212 -0.10086,0.242788 -0.10086,0.100671 -0.24325,0.100671 z m 2.0914,3.807623 q -0.33523,0 -0.60813,-0.109551 -0.27293,-0.10955 -0.44202,-0.331612 -0.1691,-0.225023 -0.18986,-0.565519 h 0.49838 q 0.0267,0.278319 0.21358,0.426359 0.18689,0.148042 0.51619,0.148042 0.32631,0 0.51319,-0.136197 0.18986,-0.136199 0.18986,-0.343456 0,-0.17765 -0.13052,-0.28424 -0.13054,-0.106589 -0.34114,-0.153962 l -0.50432,-0.118434 q -0.43609,-0.103628 -0.66154,-0.325691 -0.22249,-0.222061 -0.22249,-0.562557 0,-0.266473 0.1424,-0.470771 0.14536,-0.207258 0.40048,-0.32273 0.25808,-0.118433 0.5933,-0.118433 0.32632,0 0.58441,0.124355 0.26105,0.121394 0.41235,0.346417 0.15425,0.225023 0.16315,0.535909 h -0.49244 q -0.003,-0.248709 -0.18392,-0.411555 -0.18096,-0.162846 -0.48355,-0.162846 -0.28774,0 -0.4598,0.13916 -0.17206,0.139159 -0.17206,0.340494 0,0.17765 0.13053,0.287201 0.13052,0.10659 0.35597,0.159885 l 0.50431,0.118431 q 0.45091,0.106591 0.66153,0.31977 0.21064,0.210219 0.21064,0.547753 0,0.290162 -0.15723,0.497418 -0.15723,0.207259 -0.43014,0.316809 -0.26995,0.109551 -0.61111,0.109551 z"
       id="text5"
       style="font-size:8.00116px;font-family:'Adwaita Sans';-inkscape-font-specification:'Adwaita Sans, @opsz=32';font-variation-settings:'opsz' 32;fill:#212121;stroke:none;stroke-width:0.0321059"
       aria-label="Soluções  Digitais" />
  </g>
</svg>
